<svg width="170" height="36" viewBox="0 0 170 36" fill="none" xmlns="http://www.w3.org/2000/svg">
<path d="M69.3604 35.4961H4.13477C1.84997 35.4961 0 33.6461 0 31.3613V4.13477C0 1.84997 1.84997 0 4.13477 0H69.3604V35.4961ZM43.833 7.68359C43.4658 7.68359 43.0435 7.71115 42.5947 7.75195C42.1461 7.79277 41.6976 7.88847 41.249 8.02441C40.8003 8.16039 40.3648 8.35006 39.9297 8.6084C39.5081 8.8668 39.1272 9.19356 38.8008 9.60156C38.4744 10.0096 38.2021 10.5129 38.0117 11.0977C37.8078 11.6824 37.7129 12.3764 37.7129 13.1787C37.7129 14.2664 37.8216 15.1501 38.0391 15.8164C38.2566 16.4826 38.556 17.0267 38.9502 17.4482C39.3446 17.8698 39.8074 18.1829 40.3242 18.4141C40.841 18.6452 41.4124 18.8496 42.0244 19.0264C42.813 19.2439 43.52 19.3931 44.1318 19.4883C44.7438 19.5835 45.2748 19.7059 45.71 19.8691C46.0906 20.0187 46.376 20.2094 46.5527 20.4541C46.7295 20.6989 46.8252 21.1074 46.8252 21.665C46.8251 22.7257 46.5933 23.46 46.1445 23.8271C45.6957 24.1943 44.975 24.3848 43.9688 24.3848C43.3568 24.3848 42.8534 24.29 42.459 24.0996C42.0646 23.9092 41.7516 23.6505 41.5068 23.3105C41.262 22.9706 41.0854 22.5756 40.9902 22.0996C40.8951 21.6374 40.827 21.1072 40.7998 20.5498H37.1963C37.1963 23.0929 37.7541 24.9694 38.8828 26.1934C40.0116 27.4037 41.6569 28.0156 43.8057 28.0156C48.2392 28.0156 50.456 25.9488 50.4561 21.8281C50.4561 20.7946 50.361 19.924 50.1299 19.2305C49.9259 18.5369 49.626 17.9654 49.2588 17.5166C48.8916 17.0679 48.4563 16.7281 47.9668 16.4697C47.4773 16.2114 46.9471 16.007 46.376 15.8574C45.8049 15.7079 45.2203 15.5717 44.6084 15.4629C43.9964 15.3541 43.3972 15.2179 42.7988 15.0547C42.2279 14.9051 41.8338 14.7284 41.6299 14.5244C41.4259 14.3204 41.3164 13.9808 41.3164 13.5049C41.3164 13.1105 41.3578 12.7563 41.4258 12.4707C41.4938 12.1853 41.63 11.9404 41.8203 11.7637C42.0106 11.587 42.2687 11.4506 42.6084 11.3555C42.9483 11.2603 43.3838 11.2197 43.9004 11.2197C44.5667 11.2197 45.0563 11.3292 45.3691 11.5332C45.6819 11.7372 45.8864 11.9682 46.0088 12.2266C46.1447 12.5121 46.2404 12.8655 46.2676 13.2598C46.3084 13.6541 46.3489 14.0213 46.4033 14.3477H49.9395C49.9394 13.5725 49.8576 12.7838 49.708 11.9814C49.5584 11.1928 49.2592 10.4721 48.8105 9.83301C48.3617 9.20741 47.7497 8.67663 46.9473 8.28223C46.1585 7.88785 45.1113 7.68362 43.833 7.68359ZM8.21484 8.03711V27.6084H15.1094C15.803 27.6084 16.5106 27.5403 17.2314 27.4043C17.9522 27.2683 18.6047 26.9958 19.1895 26.5742C19.7742 26.1662 20.2637 25.5543 20.6309 24.752C20.9981 23.9496 21.1885 22.8747 21.1885 21.5283C21.1884 20.2639 21.0117 19.2715 20.6582 18.5508C20.291 17.8436 19.829 17.3531 19.2578 17.0811C20.128 16.4418 20.5763 15.2315 20.6035 13.4502C20.6171 12.8382 20.5627 12.1987 20.4268 11.5596C20.2908 10.9207 20.0467 10.3359 19.6797 9.80566C19.3126 9.27539 18.8226 8.85371 18.1973 8.52734C17.5717 8.20094 16.7819 8.03711 15.8027 8.03711H8.21484ZM23.6367 8.03711V27.6084H36.0674V23.7861H27.3359V19.2305H35.1699V15.4355H27.3359V11.832H35.8496V8.03711H23.6367ZM51.2988 8.03711V11.8184H55.7734V27.6084H59.4863V11.8184H63.9473V8.03711H51.2988ZM16.0342 19.0811C16.1974 19.0811 16.3612 19.1077 16.5244 19.1621C16.701 19.2165 16.8505 19.3391 16.9863 19.5156C17.1223 19.6924 17.2446 19.951 17.3262 20.2637C17.4214 20.5764 17.4619 21.0118 17.4619 21.5557C17.4619 22.3443 17.3403 22.9022 17.082 23.2559C16.8372 23.5958 16.3744 23.7724 15.7217 23.7725H11.9268V19.0811H16.0342ZM15.8574 11.6963C16.2925 11.6963 16.5779 11.8456 16.7275 12.1445C16.8771 12.4437 16.9453 12.9066 16.9453 13.5186C16.9453 14.1441 16.8368 14.6612 16.6328 15.042C16.4288 15.409 16.0613 15.5996 15.5039 15.5996H11.9268V11.6963H15.8574Z" fill="white" fill-opacity="0.32"/>
<path d="M165.865 0C168.15 0.000144641 169.999 1.85006 169.999 4.13477V31.375C169.999 33.6461 168.15 35.4959 165.865 35.4961H69.3594V0H165.865ZM81.1641 7.64355C79.8721 7.64355 78.7568 7.87452 77.8184 8.33691C76.8936 8.79931 76.1179 9.46547 75.5059 10.3223C74.8939 11.1926 74.4457 12.24 74.1602 13.4639C73.8746 14.6879 73.7246 16.0754 73.7246 17.5986C73.7246 19.2577 73.8608 20.7267 74.1328 22.0186C74.3912 23.3104 74.8264 24.3983 75.4111 25.2822C76.0095 26.1525 76.7708 26.8325 77.7227 27.2949C78.6747 27.7573 79.8314 27.9883 81.1914 27.9883C82.3743 27.9882 83.3805 27.7848 84.21 27.377C85.0394 26.969 85.7196 26.4249 86.2363 25.7314C86.7531 25.0515 87.1479 24.2489 87.4199 23.3242C87.6919 22.3994 87.8686 21.4331 87.9502 20.4131V20.3994H84.3594C84.237 20.9842 84.1283 21.5015 84.0059 21.9639C83.8971 22.4262 83.7343 22.8212 83.5303 23.1611C83.3263 23.501 83.0537 23.7588 82.7002 23.9355C82.3466 24.1123 81.8844 24.208 81.2861 24.208C80.7015 24.208 80.1849 24.126 79.709 23.9629C79.233 23.7997 78.8381 23.5006 78.5117 23.0518C78.1854 22.6166 77.9268 21.9909 77.75 21.2021C77.5732 20.3998 77.4785 19.3798 77.4785 18.1016C77.4785 16.8368 77.5329 15.7757 77.6689 14.9189C77.8049 14.0622 78.0221 13.3683 78.3213 12.8379C78.6205 12.3076 79.029 11.9275 79.5186 11.6963C80.0081 11.4651 80.6201 11.3418 81.3408 11.3418C81.9391 11.3418 82.415 11.4238 82.7686 11.6006C83.122 11.7773 83.4073 12.0085 83.6113 12.2939C83.8153 12.5795 83.979 12.9337 84.0742 13.3281C84.183 13.7224 84.2778 14.144 84.3594 14.5791H87.8682C87.773 13.7497 87.6238 12.9066 87.4062 12.0771C87.1887 11.2477 86.8351 10.4994 86.3457 9.84668C85.8425 9.19388 85.189 8.66288 84.3594 8.25488C83.5299 7.84705 82.4693 7.64358 81.1641 7.64355ZM142.677 7.64355C137.686 7.64355 135.196 10.9618 135.196 17.5986C135.196 19.0537 135.319 20.414 135.55 21.6787C135.781 22.9434 136.176 24.045 136.733 24.9697C137.291 25.8944 138.025 26.6151 138.937 27.1455C139.848 27.6759 140.991 27.9346 142.351 27.9346C142.745 27.9346 143.153 27.9068 143.561 27.8389C143.969 27.7709 144.377 27.6622 144.758 27.4854C145.138 27.3086 145.492 27.0774 145.818 26.7783C146.145 26.4791 146.416 26.098 146.634 25.6221V27.6074H149.667V16.8906H142.459V20.4951H145.94C145.954 21.1343 145.886 21.6782 145.723 22.127C145.559 22.5757 145.329 22.9566 145.043 23.2422C144.757 23.5277 144.418 23.7458 144.023 23.8818C143.629 24.0178 143.22 24.0859 142.785 24.0859C142.024 24.0859 141.398 23.9635 140.908 23.7188C140.419 23.474 140.025 23.0927 139.726 22.5625C139.426 22.0457 139.222 21.3519 139.1 20.4951C138.977 19.6384 138.923 18.6049 138.923 17.4082C138.923 16.3203 138.991 15.3816 139.127 14.6064C139.263 13.8312 139.481 13.1917 139.78 12.7021C140.079 12.2128 140.46 11.8591 140.936 11.6279C141.398 11.3967 141.983 11.2881 142.663 11.2881C143.343 11.2881 143.873 11.3967 144.268 11.6006C144.662 11.8046 144.961 12.0769 145.151 12.4033C145.342 12.7297 145.464 13.097 145.519 13.5186C145.573 13.94 145.601 14.3479 145.601 14.7422H149.382C149.382 13.8446 149.259 12.9603 149.027 12.1035C148.796 11.2606 148.416 10.4992 147.886 9.83301C147.355 9.18021 146.661 8.63561 145.805 8.24121C144.948 7.84684 143.914 7.64357 142.677 7.64355ZM89.8682 8.03711V27.6074H93.5674V19.1621H99.1426V27.6074H102.842V8.03711H99.1426V15.3408H93.5674V8.03711H89.8682ZM109.234 8.03711L103.876 27.6074H107.616L108.622 23.5684H113.546L114.565 27.6074H118.441L112.906 8.03711H109.234ZM119.951 8.03711V27.6074H123.65V15.6943L129.308 27.6074H132.952V8.03711H129.28V19.8691L123.582 8.03711H119.951ZM151.966 8.03711V27.6074H164.368V23.7861H155.665V19.2305H163.471V15.4355H155.665V11.832H164.151V8.03711H151.966ZM112.621 19.9238H109.533L111.098 13.627L112.621 19.9238Z" fill="white" fill-opacity="0.64"/>
</svg>
