<svg width="223" height="92" viewBox="0 0 223 92" fill="none" xmlns="http://www.w3.org/2000/svg">
<path d="M44.1729 8.38428C44.6358 17.0925 45.1218 28.1325 44.9309 37.7259C43.3223 29.8972 43.224 21.7445 42.1246 13.8001C41.5113 11.665 43.2066 10.0681 44.1729 8.38428Z" fill="white"/>
<path d="M47.0818 8.11816C47.9324 9.39112 48.7135 10.6988 49.4484 12.0354C48.3606 20.5758 48.1407 29.3129 46.4916 37.7318C46.2023 27.8663 46.9835 17.9894 47.0818 8.11816Z" fill="white"/>
<path d="M39.7521 15.9644C41.187 21.7563 42.3848 30.6033 43.38 37.6046C40.8862 32.1135 40.4348 25.7198 38.6585 19.8932C37.9873 18.4235 38.9883 17.1447 39.7521 15.9644Z" fill="white"/>
<path d="M51.4105 15.9642C51.7924 15.8427 53.534 18.3655 52.8339 19.5632C51.0633 25.5056 50.5368 31.9977 48.043 37.6045C48.9051 30.3602 50.3516 23.1853 51.4105 15.9642Z" fill="white"/>
<path d="M36.263 21.9414C36.4308 21.7794 36.7549 21.4496 36.9169 21.2876C38.3229 26.8365 40.458 32.2003 41.6037 37.8013C39.4107 33.0162 35.9101 27.0159 36.263 21.9414Z" fill="white"/>
<path d="M54.3682 21.7737C54.5534 20.6049 55.456 22.6647 55.9074 22.9714C53.7607 27.8491 52.5919 33.3286 49.8203 37.8129C50.9139 32.3681 52.9969 27.1606 54.3682 21.7737Z" fill="white"/>
<path d="M34.1626 25.4131C36.3497 29.3882 38.0856 33.6294 39.8388 37.8128C37.4491 34.4279 33.2426 29.556 34.1626 25.4131Z" fill="white"/>
<path d="M56.9544 25.4766C58.7018 29.388 53.5984 34.3468 51.6543 38.1772C52.8173 33.7392 55.3922 29.793 56.9544 25.4766Z" fill="white"/>
<path d="M31.8945 29.4751C34.1453 30.3257 36.0837 35.5159 38.0799 38.2527C35.4009 36.3143 32.3806 32.455 31.8945 29.4751Z" fill="white"/>
<path d="M58.991 28.9482C60.2698 31.8934 55.7855 36.2157 53.3438 38.235C55.1375 35.0874 57.1915 32.0901 58.991 28.9482Z" fill="white"/>
<path d="M29.8574 32.7674C32.0851 32.0731 34.1913 36.864 35.9676 38.8255C33.4796 37.6394 31.1188 34.7579 29.8574 32.7674Z" fill="white"/>
<path d="M60.7551 32.0498C62.4852 34.1039 57.4454 37.4657 55.4492 38.8196C56.9536 36.3721 59.0135 34.3238 60.7551 32.0498Z" fill="white"/>
<path d="M28.6939 34.9893C30.1173 35.1976 32.3276 37.8534 33.7105 39.381C31.7837 38.866 28.3352 36.9103 28.6939 34.9893Z" fill="white"/>
<path d="M62.2069 34.9834C64.2552 35.8803 59.5163 39.1552 57.7168 39.3925C58.9955 37.7203 60.6215 36.3489 62.2069 34.9834Z" fill="white"/>
<path d="M26.9524 37.7608C28.5552 36.6383 29.0123 39.5198 30.6787 39.352C31.4425 41.6896 26.8656 38.9875 26.9524 37.7608Z" fill="white"/>
<path d="M62.5078 38.2527C66.7837 35.8225 61.987 41.8112 60.3438 39.948C60.905 39.1148 61.9234 39.0107 62.5078 38.2527Z" fill="white"/>
<path d="M25.6621 40.0518C30.3489 40.0749 26.2928 43.778 25.6621 40.0518Z" fill="white"/>
<path d="M43.1877 40.4454C54.8237 39.5312 66.639 44.7793 73.8486 53.9446C60.6503 71.9395 30.7648 71.9511 17.5781 53.9388C23.7577 46.139 33.2413 41.0819 43.1877 40.4454ZM39.716 43.2459C36.2501 45.3868 40.15 49.1305 39.7738 52.0178C40.7864 56.0681 46.1733 57.2658 49.3731 55.1365C53.3308 52.4864 52.4108 45.2074 47.5389 44.2122C44.6979 44.6693 42.5396 41.134 39.716 43.2459ZM30.9615 46.1217C27.4956 48.3783 21.8425 50.5481 21.3044 54.7835C34.3117 68.5488 57.1786 68.543 70.1165 54.7835C68.913 50.0562 62.4093 46.6251 57.601 45.4273C59.8981 52.1566 55.3328 61.3624 46.914 62.3461C38.5935 63.3876 31.4128 54.0082 33.7505 47.4988C34.5894 45.0801 32.599 45.219 30.9615 46.1217Z" fill="white" fill-opacity="0.32"/>
<path d="M64.4005 40.2139C69.0005 40.48 60.2345 43.2227 64.4005 40.2139Z" fill="white"/>
<path d="M24.361 42.5342C26.7218 41.863 23.7303 44.8255 24.361 42.5342Z" fill="white"/>
<path d="M66.2231 42.4648C68.5839 42.1465 65.8065 44.7156 66.2231 42.4648Z" fill="white"/>
<path d="M17.1503 58.9209C21.5652 59.9393 14.9458 61.7793 12.9785 62.3868C13.4067 60.2806 15.1541 59.1871 17.1503 58.9209Z" fill="white"/>
<path d="M73.2937 58.6143C75.0874 58.9788 77.9805 59.6905 78.5764 62.3579C76.6265 61.38 71.0024 61.2701 73.2937 58.6143Z" fill="white"/>
<path d="M20.4831 61.7153C21.5998 61.3913 21.9123 61.9583 21.7792 63.0403C17.3065 65.158 13.0421 67.6924 8.65039 69.9721C9.98699 64.4811 16.3055 64.1165 20.4831 61.7153Z" fill="white"/>
<path d="M69.8502 61.7441C74.4676 63.3295 81.1911 64.4405 82.7649 69.9721C78.3559 67.6923 74.0857 65.1233 69.5898 63.0287C69.6535 62.7046 69.7866 62.0624 69.8502 61.7441Z" fill="white"/>
<path d="M22.9195 64.0127C27.4964 64.898 20.8597 67.0446 19.6909 69.2781C13.5749 72.5704 8.68558 77.3961 2.20508 81.1629C5.31225 71.9282 16.3349 69.9088 22.9195 64.0127Z" fill="white"/>
<path d="M66.7734 64.001C74.3186 68.358 85.5843 72.0032 89.218 81.1512C83.9468 78.4432 80.4519 74.4624 75.5453 71.8702C73.3407 68.5663 67.7802 68.2827 66.7734 64.001Z" fill="white"/>
<path d="M26.6806 65.9971C27.0509 66.1302 27.7858 66.3905 28.1561 66.5236C22.7518 71.5576 17.388 76.6378 12.0474 81.7354C10.3868 82.0595 8.67408 81.8685 6.99609 81.7759C13.6675 76.661 20.015 71.1178 26.6806 65.9971Z" fill="white"/>
<path d="M64.1508 66.084C71.2447 70.2847 77.5747 76.7884 84.4082 81.8455C82.7129 81.8976 81.0175 81.9034 79.3279 81.8281C74.1378 76.5454 68.5946 71.6098 63.2598 66.4717L64.1508 66.084Z" fill="white"/>
<path d="M29.36 67.6692C29.7361 67.0963 30.5809 67.6807 31.1595 67.5997C27.7283 72.2344 23.9326 76.5914 20.3104 81.0757C19.3731 82.4528 17.5157 81.7295 16.1328 81.9031C20.3799 77.0254 25.0319 72.4832 29.36 67.6692Z" fill="white"/>
<path d="M60.5176 67.577C60.8532 67.5365 61.5128 67.4497 61.8426 67.4092C66.2227 72.3274 70.9616 76.9448 75.2954 81.8977C73.5075 81.9614 71.3724 82.2565 70.4408 80.3123C67.3279 76.0826 62.8031 71.6389 60.5176 67.577Z" fill="white"/>
<path d="M32.6292 68.6416C32.9069 68.792 33.474 69.0929 33.7517 69.2434C31.1884 73.4441 28.5384 77.5986 26.0561 81.8456C25.0609 81.8746 24.0715 81.8977 23.082 81.9209C26.0677 77.3614 29.3947 73.0275 32.6292 68.6416Z" fill="white"/>
<path d="M58.002 68.4795C62.1275 71.9743 65.0032 77.4365 68.336 81.9265C67.3466 81.9034 66.3572 81.8745 65.3677 81.8455C63.1632 77.3381 59.0377 73.0101 58.002 68.4795Z" fill="white"/>
<path d="M35.4807 69.5959C38.1076 68.8727 35.5848 71.7195 35.3013 72.9693C33.1084 75.8508 33.2704 82.3834 28.8613 81.8915C31.0022 77.7602 33.1547 73.6231 35.4807 69.5959Z" fill="white"/>
<path d="M54.6973 69.7988C54.9345 69.6542 55.4148 69.3649 55.6578 69.2202C58.1169 73.3457 60.4198 77.5986 62.5317 81.9093C61.7217 81.9093 60.9174 81.9093 60.1131 81.9093C58.3715 77.8763 56.3868 73.6582 54.6973 69.7988Z" fill="white"/>
<path d="M38.2301 70.3311C39.7287 71.0138 37.6457 81.6893 33.8789 81.967C35.1866 78.0382 36.7546 74.1962 38.2301 70.3311Z" fill="white"/>
<path d="M41.1116 70.6031C43.3797 70.4006 40.9785 75.4461 41.1289 77.5176C40.5503 79.3344 41.3141 82.9276 38.3516 81.8688C39.3005 78.1193 40.0701 74.3236 41.1116 70.6031Z" fill="white"/>
<path d="M43.911 70.7822C46.1097 71.8179 44.1598 78.5299 44.6458 81.8859C40.665 81.5676 44.1656 74.1787 43.911 70.7822Z" fill="white"/>
<path d="M46.5627 70.3887C49.1029 72.9809 47.8126 78.1884 48.7731 81.8568C44.7112 81.527 47.4075 73.924 46.5627 70.3887Z" fill="white"/>
<path d="M49.2402 70.2676C52.0755 72.7383 51.6183 78.1541 53.0649 81.8688C48.6616 81.7531 50.6405 73.7451 49.2402 70.2676Z" fill="white"/>
<path d="M51.8789 70.0244C55.2927 72.2232 55.6688 78.1424 57.4568 81.9728C53.0651 80.9892 53.8288 73.8317 51.8789 70.0244Z" fill="white"/>
<path d="M39.7162 43.2458C42.5398 41.1339 44.698 44.6692 47.5391 44.2121C52.411 45.2073 53.331 52.4863 49.3733 55.1364C46.1735 57.2657 40.7866 56.068 39.774 52.0176C40.1501 49.1303 36.2502 45.3867 39.7162 43.2458Z" fill="white"/>
<path d="M30.9618 46.1216C32.5993 45.2189 34.5897 45.0801 33.7507 47.4987C31.4131 54.0081 38.5937 63.3875 46.9142 62.346C55.3331 61.3623 59.8984 52.1566 57.6013 45.4272C62.4096 46.625 68.9132 50.0562 70.1168 54.7835C57.1789 68.543 34.312 68.5488 21.3047 54.7835C21.8428 50.548 27.4959 48.3782 30.9618 46.1216Z" fill="white"/>
<path d="M131.832 42.968H143.064V44.696C143.064 47.896 142.04 50.488 139.992 52.472C137.944 54.456 135.299 55.448 132.056 55.448C128.6 55.448 125.731 54.328 123.448 52.088C121.187 49.8267 120.056 47.0747 120.056 43.832C120.056 40.568 121.176 37.8053 123.416 35.544C125.677 33.2827 128.472 32.152 131.8 32.152C133.869 32.152 135.768 32.6213 137.496 33.56C139.224 34.4987 140.579 35.768 141.56 37.368L137.784 39.544C137.251 38.6267 136.44 37.88 135.352 37.304C134.264 36.728 133.069 36.44 131.768 36.44C129.613 36.44 127.853 37.144 126.488 38.552C125.123 39.9173 124.44 41.6773 124.44 43.832C124.44 45.944 125.133 47.6933 126.52 49.08C127.907 50.4453 129.763 51.128 132.088 51.128C133.773 51.128 135.181 50.7547 136.312 50.008C137.443 49.2613 138.211 48.216 138.616 46.872H131.832V42.968ZM150.141 55H146.013V31.64H150.141V55ZM166.079 40.888V39H170.207V55H166.079V53.112C164.842 54.6693 163.103 55.448 160.863 55.448C158.73 55.448 156.895 54.6373 155.359 53.016C153.845 51.3733 153.087 49.368 153.087 47C153.087 44.6533 153.845 42.6587 155.359 41.016C156.895 39.3733 158.73 38.552 160.863 38.552C163.103 38.552 164.842 39.3307 166.079 40.888ZM158.463 50.264C159.295 51.096 160.351 51.512 161.631 51.512C162.911 51.512 163.967 51.096 164.799 50.264C165.653 49.4107 166.079 48.3227 166.079 47C166.079 45.6773 165.653 44.6 164.799 43.768C163.967 42.9147 162.911 42.488 161.631 42.488C160.351 42.488 159.295 42.9147 158.463 43.768C157.631 44.6 157.215 45.6773 157.215 47C157.215 48.3227 157.631 49.4107 158.463 50.264ZM185.759 41.752L178.975 51.128H186.079V55H173.439V52.248L180.191 42.872H173.759V39H185.759V41.752ZM201.739 53.016C200.117 54.6373 198.112 55.448 195.723 55.448C193.333 55.448 191.328 54.6373 189.707 53.016C188.085 51.3947 187.275 49.3893 187.275 47C187.275 44.632 188.085 42.6373 189.707 41.016C191.349 39.3733 193.355 38.552 195.723 38.552C198.091 38.552 200.096 39.3733 201.739 41.016C203.381 42.6587 204.203 44.6533 204.203 47C204.203 49.368 203.381 51.3733 201.739 53.016ZM192.619 50.168C193.451 51 194.485 51.416 195.723 51.416C196.96 51.416 197.995 51 198.827 50.168C199.659 49.336 200.075 48.28 200.075 47C200.075 45.72 199.659 44.664 198.827 43.832C197.995 43 196.96 42.584 195.723 42.584C194.485 42.584 193.451 43 192.619 43.832C191.808 44.6853 191.403 45.7413 191.403 47C191.403 48.2587 191.808 49.3147 192.619 50.168ZM215.235 46.904L221.859 55H217.059L211.235 47.736V55H207.107V32.6H211.235V46.04L216.739 39H221.667L215.235 46.904Z" fill="white"/>
</svg>
