<svg width="232" height="59" viewBox="0 0 232 59" fill="none" xmlns="http://www.w3.org/2000/svg">
<path d="M17.2685 27L8.65199 15.5582H6.32528V27H1.58239V0.818181H6.32528V11.5824H7.5142L16.821 0.818181H22.6634L12.321 12.7585L23.1108 27H17.2685ZM27.5629 34.3636C26.9322 34.3636 26.3484 34.3125 25.8114 34.2102C25.283 34.1165 24.8612 34.0057 24.5458 33.8778L25.6197 30.2727C26.293 30.4688 26.8938 30.5625 27.4222 30.554C27.9506 30.5455 28.4151 30.3793 28.8157 30.0554C29.2248 29.7401 29.57 29.2116 29.8512 28.4702L30.2475 27.4091L23.1268 7.36364H28.0359L32.5614 22.1932H32.766L37.3043 7.36364H42.2262L34.364 29.3778C33.9975 30.4176 33.5117 31.3082 32.9066 32.0497C32.3015 32.7997 31.56 33.3707 30.6822 33.7628C29.8129 34.1634 28.7731 34.3636 27.5629 34.3636ZM45.4286 34.3636V7.36364H49.9798V10.6108H50.2482C50.4869 10.1335 50.8235 9.62642 51.2582 9.08949C51.6928 8.54403 52.2809 8.07954 53.0224 7.69602C53.7638 7.30398 54.7099 7.10795 55.8604 7.10795C57.3775 7.10795 58.7454 7.49574 59.9641 8.27131C61.1914 9.03835 62.163 10.1761 62.8789 11.6847C63.6033 13.1847 63.9656 15.0256 63.9656 17.2074C63.9656 19.3636 63.6119 21.196 62.9045 22.7045C62.1971 24.2131 61.234 25.3636 60.0153 26.1562C58.7965 26.9489 57.4158 27.3452 55.8732 27.3452C54.7482 27.3452 53.815 27.1577 53.0735 26.7827C52.332 26.4077 51.7354 25.956 51.2837 25.4276C50.8406 24.8906 50.4954 24.3835 50.2482 23.9062H50.0565V34.3636H45.4286ZM49.967 17.1818C49.967 18.4517 50.146 19.5639 50.5039 20.5185C50.8704 21.473 51.3945 22.2187 52.0764 22.7557C52.7667 23.2841 53.6019 23.5483 54.582 23.5483C55.6048 23.5483 56.4613 23.2756 57.1516 22.7301C57.842 22.1761 58.3619 21.4219 58.7113 20.4673C59.0692 19.5043 59.2482 18.4091 59.2482 17.1818C59.2482 15.9631 59.0735 14.8807 58.7241 13.9347C58.3746 12.9886 57.8548 12.2472 57.1644 11.7102C56.4741 11.1733 55.6133 10.9048 54.582 10.9048C53.5934 10.9048 52.7539 11.1648 52.0636 11.6847C51.3732 12.2045 50.8491 12.9332 50.4911 13.8707C50.1417 14.8082 49.967 15.9119 49.967 17.1818ZM76.494 27.3835C74.5337 27.3835 72.8505 26.9531 71.4442 26.0923C70.0465 25.2315 68.9684 24.0426 68.2099 22.5256C67.4599 21 67.0849 19.2443 67.0849 17.2585C67.0849 15.2642 67.4684 13.5043 68.2354 11.9787C69.0025 10.4446 70.0849 9.25142 71.4826 8.39915C72.8888 7.53835 74.5508 7.10795 76.4684 7.10795C78.0621 7.10795 79.4727 7.40199 80.6999 7.99006C81.9357 8.5696 82.9201 9.39205 83.6531 10.4574C84.386 11.5142 84.8036 12.75 84.9059 14.1648H80.4826C80.3036 13.2187 79.8775 12.4304 79.2042 11.7997C78.5394 11.1605 77.6488 10.8409 76.5323 10.8409C75.5863 10.8409 74.7553 11.0966 74.0394 11.608C73.3235 12.1108 72.7653 12.8352 72.3647 13.7812C71.9727 14.7273 71.7766 15.8608 71.7766 17.1818C71.7766 18.5199 71.9727 19.6705 72.3647 20.6335C72.7567 21.5881 73.3065 22.3253 74.0138 22.8452C74.7298 23.3565 75.5692 23.6122 76.5323 23.6122C77.2141 23.6122 77.8235 23.4844 78.3604 23.2287C78.9059 22.9645 79.3619 22.5852 79.7283 22.0909C80.0948 21.5966 80.3462 20.9957 80.4826 20.2884H84.9059C84.7951 21.6776 84.386 22.9091 83.6786 23.983C82.9712 25.0483 82.0082 25.8835 80.7894 26.4886C79.5707 27.0852 78.1388 27.3835 76.494 27.3835ZM88.9105 27V0.818181H105.939V4.79403H93.6534V11.902H105.057V15.8778H93.6534V23.0241H106.041V27H88.9105ZM110.573 27V7.36364H115.201V15.2898H116.888L122.795 7.36364H128.369L121.094 17.0028L128.445 27H122.846L117.464 19.598H115.201V27H110.573ZM138.826 27.3835C136.866 27.3835 135.183 26.9531 133.776 26.0923C132.379 25.2315 131.3 24.0426 130.542 22.5256C129.792 21 129.417 19.2443 129.417 17.2585C129.417 15.2642 129.8 13.5043 130.567 11.9787C131.335 10.4446 132.417 9.25142 133.815 8.39915C135.221 7.53835 136.883 7.10795 138.8 7.10795C140.394 7.10795 141.805 7.40199 143.032 7.99006C144.268 8.5696 145.252 9.39205 145.985 10.4574C146.718 11.5142 147.136 12.75 147.238 14.1648H142.815C142.636 13.2187 142.21 12.4304 141.536 11.7997C140.871 11.1605 139.981 10.8409 138.864 10.8409C137.918 10.8409 137.087 11.0966 136.371 11.608C135.656 12.1108 135.097 12.8352 134.697 13.7812C134.305 14.7273 134.109 15.8608 134.109 17.1818C134.109 18.5199 134.305 19.6705 134.697 20.6335C135.089 21.5881 135.638 22.3253 136.346 22.8452C137.062 23.3565 137.901 23.6122 138.864 23.6122C139.546 23.6122 140.156 23.4844 140.692 23.2287C141.238 22.9645 141.694 22.5852 142.06 22.0909C142.427 21.5966 142.678 20.9957 142.815 20.2884H147.238C147.127 21.6776 146.718 22.9091 146.011 23.983C145.303 25.0483 144.34 25.8835 143.121 26.4886C141.903 27.0852 140.471 27.3835 138.826 27.3835ZM151.038 27V7.36364H167.619V27H163.157V11.1605H155.461V27H151.038ZM181.071 27.3835C179.102 27.3835 177.402 26.9744 175.97 26.1562C174.547 25.3295 173.452 24.1619 172.685 22.6534C171.918 21.1364 171.534 19.3509 171.534 17.2969C171.534 15.277 171.918 13.5043 172.685 11.9787C173.46 10.4446 174.543 9.25142 175.932 8.39915C177.321 7.53835 178.953 7.10795 180.828 7.10795C182.038 7.10795 183.18 7.30398 184.254 7.69602C185.337 8.07954 186.291 8.67614 187.118 9.4858C187.953 10.2955 188.609 11.3267 189.087 12.5795C189.564 13.8239 189.803 15.3068 189.803 17.0284V18.4474H173.707V15.3281H185.366C185.358 14.4418 185.166 13.6534 184.791 12.9631C184.416 12.2642 183.892 11.7145 183.219 11.3139C182.554 10.9134 181.778 10.7131 180.892 10.7131C179.946 10.7131 179.115 10.9432 178.399 11.4034C177.683 11.8551 177.125 12.4517 176.724 13.1932C176.332 13.9261 176.132 14.7315 176.124 15.6094V18.3324C176.124 19.4744 176.332 20.4545 176.75 21.2727C177.168 22.0824 177.751 22.7045 178.501 23.1392C179.251 23.5653 180.129 23.7784 181.135 23.7784C181.808 23.7784 182.418 23.6847 182.963 23.4972C183.509 23.3011 183.982 23.0156 184.382 22.6406C184.783 22.2656 185.085 21.8011 185.29 21.2472L189.611 21.733C189.338 22.875 188.818 23.8722 188.051 24.7244C187.293 25.5682 186.321 26.2244 185.136 26.6932C183.952 27.1534 182.597 27.3835 181.071 27.3835ZM193.718 34.3636V7.36364H198.269V10.6108H198.537C198.776 10.1335 199.113 9.62642 199.547 9.08949C199.982 8.54403 200.57 8.07954 201.311 7.69602C202.053 7.30398 202.999 7.10795 204.15 7.10795C205.667 7.10795 207.034 7.49574 208.253 8.27131C209.48 9.03835 210.452 10.1761 211.168 11.6847C211.892 13.1847 212.255 15.0256 212.255 17.2074C212.255 19.3636 211.901 21.196 211.194 22.7045C210.486 24.2131 209.523 25.3636 208.304 26.1562C207.086 26.9489 205.705 27.3452 204.162 27.3452C203.037 27.3452 202.104 27.1577 201.363 26.7827C200.621 26.4077 200.025 25.956 199.573 25.4276C199.13 24.8906 198.784 24.3835 198.537 23.9062H198.346V34.3636H193.718ZM198.256 17.1818C198.256 18.4517 198.435 19.5639 198.793 20.5185C199.159 21.473 199.684 22.2187 200.365 22.7557C201.056 23.2841 201.891 23.5483 202.871 23.5483C203.894 23.5483 204.75 23.2756 205.441 22.7301C206.131 22.1761 206.651 21.4219 207 20.4673C207.358 19.5043 207.537 18.4091 207.537 17.1818C207.537 15.9631 207.363 14.8807 207.013 13.9347C206.664 12.9886 206.144 12.2472 205.453 11.7102C204.763 11.1733 203.902 10.9048 202.871 10.9048C201.882 10.9048 201.043 11.1648 200.353 11.6847C199.662 12.2045 199.138 12.9332 198.78 13.8707C198.431 14.8082 198.256 15.9119 198.256 17.1818ZM214.054 11.1605V7.36364H231.236V11.1605H224.882V27H220.408V11.1605H214.054ZM0.673296 41.1818H2.67045L7.36648 52.652H7.52841L12.2244 41.1818H14.2216V55H12.6562V44.5014H12.5213L8.20312 55H6.69176L2.37358 44.5014H2.23864V55H0.673296V41.1818ZM21.5709 55.2159C20.6353 55.2159 19.8144 54.9933 19.1082 54.5479C18.4065 54.1026 17.8577 53.4796 17.4619 52.679C17.0706 51.8783 16.8749 50.9427 16.8749 49.8722C16.8749 48.7926 17.0706 47.8503 17.4619 47.0451C17.8577 46.2399 18.4065 45.6147 19.1082 45.1694C19.8144 44.7241 20.6353 44.5014 21.5709 44.5014C22.5065 44.5014 23.3252 44.7241 24.0269 45.1694C24.7331 45.6147 25.2819 46.2399 25.6732 47.0451C26.069 47.8503 26.267 48.7926 26.267 49.8722C26.267 50.9427 26.069 51.8783 25.6732 52.679C25.2819 53.4796 24.7331 54.1026 24.0269 54.5479C23.3252 54.9933 22.5065 55.2159 21.5709 55.2159ZM21.5709 53.7855C22.2816 53.7855 22.8664 53.6033 23.3252 53.239C23.784 52.8746 24.1236 52.3956 24.344 51.8018C24.5644 51.2081 24.6746 50.5649 24.6746 49.8722C24.6746 49.1795 24.5644 48.534 24.344 47.9357C24.1236 47.3375 23.784 46.8539 23.3252 46.4851C22.8664 46.1162 22.2816 45.9318 21.5709 45.9318C20.8602 45.9318 20.2755 46.1162 19.8167 46.4851C19.3579 46.8539 19.0183 47.3375 18.7979 47.9357C18.5774 48.534 18.4672 49.1795 18.4672 49.8722C18.4672 50.5649 18.5774 51.2081 18.7979 51.8018C19.0183 52.3956 19.3579 52.8746 19.8167 53.239C20.2755 53.6033 20.8602 53.7855 21.5709 53.7855ZM35.6337 49.0895V50.5739H29.9121V49.0895H35.6337ZM30.29 44.6364V55H28.6976V44.6364H30.29ZM36.8482 44.6364V55H35.2559V44.6364H36.8482ZM41.3485 52.652L46.3414 44.6364H48.1767V55H46.5843V46.9844L41.6184 55H39.7562V44.6364H41.3485V52.652ZM49.683 46.1207V44.6364H58.1034V46.1207H54.7029V55H53.1105V46.1207H49.683ZM64.0983 55.2159C63.1627 55.2159 62.3418 54.9933 61.6356 54.5479C60.9339 54.1026 60.3851 53.4796 59.9893 52.679C59.5979 51.8783 59.4023 50.9427 59.4023 49.8722C59.4023 48.7926 59.5979 47.8503 59.9893 47.0451C60.3851 46.2399 60.9339 45.6147 61.6356 45.1694C62.3418 44.7241 63.1627 44.5014 64.0983 44.5014C65.0339 44.5014 65.8525 44.7241 66.5542 45.1694C67.2604 45.6147 67.8092 46.2399 68.2006 47.0451C68.5964 47.8503 68.7943 48.7926 68.7943 49.8722C68.7943 50.9427 68.5964 51.8783 68.2006 52.679C67.8092 53.4796 67.2604 54.1026 66.5542 54.5479C65.8525 54.9933 65.0339 55.2159 64.0983 55.2159ZM64.0983 53.7855C64.809 53.7855 65.3937 53.6033 65.8525 53.239C66.3113 52.8746 66.651 52.3956 66.8714 51.8018C67.0918 51.2081 67.202 50.5649 67.202 49.8722C67.202 49.1795 67.0918 48.534 66.8714 47.9357C66.651 47.3375 66.3113 46.8539 65.8525 46.4851C65.3937 46.1162 64.809 45.9318 64.0983 45.9318C63.3876 45.9318 62.8028 46.1162 62.344 46.4851C61.8852 46.8539 61.5456 47.3375 61.3252 47.9357C61.1048 48.534 60.9946 49.1795 60.9946 49.8722C60.9946 50.5649 61.1048 51.2081 61.3252 51.8018C61.5456 52.3956 61.8852 52.8746 62.344 53.239C62.8028 53.6033 63.3876 53.7855 64.0983 53.7855ZM71.225 58.8864V44.6364H72.7633V46.2827H72.9522C73.0692 46.1027 73.2311 45.8733 73.438 45.5945C73.6494 45.3111 73.9508 45.0592 74.3422 44.8388C74.738 44.6139 75.2733 44.5014 75.948 44.5014C76.8206 44.5014 77.5898 44.7196 78.2555 45.1559C78.9212 45.5922 79.4408 46.2107 79.8141 47.0114C80.1874 47.812 80.3741 48.7566 80.3741 49.8452C80.3741 50.9427 80.1874 51.8941 79.8141 52.6992C79.4408 53.4999 78.9235 54.1206 78.2623 54.5614C77.601 54.9978 76.8386 55.2159 75.975 55.2159C75.3092 55.2159 74.7762 55.1057 74.3759 54.8853C73.9756 54.6604 73.6674 54.4062 73.4515 54.1229C73.2356 53.835 73.0692 53.5966 72.9522 53.4077H72.8173V58.8864H71.225ZM72.7903 49.8182C72.7903 50.6009 72.905 51.2913 73.1344 51.8896C73.3638 52.4833 73.6989 52.9489 74.1397 53.2862C74.5806 53.6191 75.1203 53.7855 75.7591 53.7855C76.4248 53.7855 76.9803 53.6101 77.4256 53.2592C77.8754 52.9039 78.2128 52.4271 78.4377 51.8288C78.6671 51.2261 78.7818 50.5559 78.7818 49.8182C78.7818 49.0895 78.6693 48.4328 78.4444 47.848C78.224 47.2588 77.8889 46.7932 77.4391 46.4513C76.9938 46.105 76.4338 45.9318 75.7591 45.9318C75.1113 45.9318 74.5671 46.096 74.1262 46.4244C73.6854 46.7482 73.3526 47.2025 73.1277 47.7873C72.9028 48.3675 72.7903 49.0445 72.7903 49.8182ZM84.3954 52.652L89.3883 44.6364H91.2235V55H89.6312V46.9844L84.6653 55H82.8031V44.6364H84.3954V52.652ZM101.076 49.0895V50.5739H95.3545V49.0895H101.076ZM95.7323 44.6364V55H94.14V44.6364H95.7323ZM102.291 44.6364V55H100.698V44.6364H102.291ZM111.595 44.6364V46.1207H106.791V55H105.199V44.6364H111.595ZM123.473 55.2159C122.502 55.2159 121.665 54.9865 120.963 54.5277C120.262 54.0689 119.722 53.4369 119.344 52.6317C118.966 51.8266 118.777 50.9067 118.777 49.8722C118.777 48.8196 118.971 47.8907 119.358 47.0856C119.749 46.2759 120.293 45.6439 120.99 45.1896C121.692 44.7308 122.511 44.5014 123.446 44.5014C124.175 44.5014 124.832 44.6364 125.416 44.9062C126.001 45.1761 126.48 45.554 126.854 46.0398C127.227 46.5256 127.459 47.0923 127.549 47.7401H125.956C125.835 47.2678 125.565 46.8494 125.147 46.4851C124.733 46.1162 124.175 45.9318 123.473 45.9318C122.853 45.9318 122.308 46.0937 121.84 46.4176C121.377 46.737 121.015 47.189 120.754 47.7738C120.498 48.354 120.37 49.0355 120.37 49.8182C120.37 50.6188 120.496 51.3161 120.747 51.9098C121.004 52.5036 121.364 52.9646 121.827 53.293C122.295 53.6213 122.844 53.7855 123.473 53.7855C123.887 53.7855 124.263 53.7135 124.6 53.5696C124.937 53.4257 125.223 53.2188 125.457 52.9489C125.691 52.679 125.857 52.3551 125.956 51.9773H127.549C127.459 52.589 127.236 53.14 126.881 53.6303C126.53 54.1161 126.064 54.503 125.484 54.7908C124.908 55.0742 124.238 55.2159 123.473 55.2159ZM135.22 55V44.6364H136.812V49.1435H137.865L141.589 44.6364H143.641L139.457 49.6293L143.695 55H141.643L138.243 50.6278H136.812V55H135.22ZM148.853 45.9858C148.493 45.9903 148.131 46.0825 147.766 46.2624C147.407 46.4424 147.105 46.6808 146.862 46.9776C146.624 47.27 146.505 47.5961 146.505 47.956H144.939C144.939 47.5062 145.047 47.0743 145.263 46.6605C145.479 46.2467 145.769 45.8778 146.134 45.554C146.502 45.2301 146.921 44.9737 147.389 44.7848C147.861 44.5959 148.349 44.5014 148.853 44.5014C149.797 44.5014 150.598 44.7398 151.255 45.2166C151.916 45.6934 152.417 46.3232 152.759 47.1058C153.106 47.8885 153.279 48.7386 153.279 49.6562V50.0341C153.279 50.9472 153.106 51.7973 152.759 52.5845C152.417 53.3672 151.916 53.9969 151.255 54.4737C150.598 54.9505 149.797 55.1889 148.853 55.1889C148.097 55.1889 147.425 55.0225 146.835 54.6896C146.246 54.3523 145.783 53.9025 145.445 53.3402C145.108 52.7779 144.939 52.1527 144.939 51.4645H146.505C146.505 51.8558 146.615 52.2224 146.835 52.5643C147.06 52.9016 147.35 53.176 147.706 53.3874C148.066 53.5943 148.448 53.7 148.853 53.7045C149.455 53.7 149.968 53.5111 150.391 53.1378C150.814 52.7644 151.136 52.2966 151.356 51.7344C151.576 51.1721 151.687 50.6054 151.687 50.0341V49.6562C151.687 49.0715 151.576 48.5002 151.356 47.9425C151.14 47.3802 150.821 46.9147 150.398 46.5458C149.979 46.177 149.464 45.9903 148.853 45.9858ZM152.334 49.0355V50.5199H147.8V49.0355H152.334ZM155.704 44.6364H157.297V53.5156H161.21V44.6364H162.802V53.5156H166.716V44.6364H168.308V55H155.704V44.6364ZM178.908 40.75L179.718 41.7216C179.403 42.0275 179.038 42.2411 178.625 42.3626C178.211 42.484 177.743 42.5582 177.221 42.5852C176.699 42.6122 176.119 42.6392 175.48 42.6662C174.761 42.6932 174.165 42.8686 173.692 43.1925C173.22 43.5163 172.856 43.9841 172.599 44.5959C172.343 45.2076 172.179 45.9588 172.107 46.8494H172.242C172.593 46.2017 173.078 45.7249 173.699 45.419C174.32 45.1132 174.986 44.9602 175.696 44.9602C176.506 44.9602 177.235 45.1491 177.882 45.527C178.53 45.9048 179.043 46.4648 179.421 47.207C179.799 47.9492 179.987 48.8646 179.987 49.9531C179.987 51.0372 179.794 51.9728 179.407 52.7599C179.025 53.5471 178.487 54.1544 177.795 54.5817C177.106 55.0045 176.299 55.2159 175.372 55.2159C174.446 55.2159 173.634 54.9978 172.937 54.5614C172.239 54.1206 171.697 53.4684 171.311 52.6048C170.924 51.7366 170.73 50.6638 170.73 49.3864V48.2798C170.73 45.9723 171.122 44.2225 171.904 43.0305C172.692 41.8385 173.875 41.2223 175.453 41.1818C176.011 41.1638 176.508 41.1593 176.945 41.1683C177.381 41.1773 177.761 41.1571 178.085 41.1076C178.409 41.0581 178.683 40.9389 178.908 40.75ZM175.372 53.7855C175.998 53.7855 176.535 53.6281 176.985 53.3132C177.439 52.9983 177.788 52.5553 178.031 51.984C178.274 51.4083 178.395 50.7313 178.395 49.9531C178.395 49.1974 178.271 48.5542 178.024 48.0234C177.781 47.4927 177.433 47.0878 176.978 46.8089C176.524 46.5301 175.98 46.3906 175.345 46.3906C174.882 46.3906 174.466 46.4693 174.097 46.6268C173.728 46.7842 173.414 47.0159 173.153 47.3217C172.892 47.6276 172.689 48.0009 172.545 48.4418C172.406 48.8826 172.332 49.3864 172.323 49.9531C172.323 51.1136 172.595 52.0425 173.139 52.7397C173.683 53.4369 174.428 53.7855 175.372 53.7855ZM186.768 55.2159C185.77 55.2159 184.908 54.9955 184.184 54.5547C183.465 54.1094 182.909 53.4886 182.518 52.6925C182.131 51.8918 181.937 50.9607 181.937 49.8991C181.937 48.8376 182.131 47.902 182.518 47.0923C182.909 46.2782 183.453 45.6439 184.15 45.1896C184.852 44.7308 185.671 44.5014 186.606 44.5014C187.146 44.5014 187.679 44.5914 188.206 44.7713C188.732 44.9512 189.211 45.2436 189.643 45.6484C190.074 46.0488 190.419 46.5795 190.675 47.2408C190.931 47.902 191.06 48.7161 191.06 49.6832V50.358H183.071V48.9815H189.44C189.44 48.3968 189.323 47.875 189.089 47.4162C188.86 46.9574 188.532 46.5953 188.104 46.3299C187.681 46.0645 187.182 45.9318 186.606 45.9318C185.972 45.9318 185.423 46.0893 184.96 46.4041C184.501 46.7145 184.148 47.1193 183.901 47.6186C183.653 48.1179 183.53 48.6532 183.53 49.2244V50.142C183.53 50.9247 183.665 51.5882 183.935 52.1325C184.209 52.6722 184.589 53.0838 185.075 53.3672C185.561 53.6461 186.125 53.7855 186.768 53.7855C187.187 53.7855 187.565 53.727 187.902 53.6101C188.244 53.4886 188.538 53.3087 188.786 53.0703C189.033 52.8274 189.224 52.526 189.359 52.1662L190.898 52.598C190.736 53.1198 190.464 53.5786 190.081 53.9744C189.699 54.3658 189.227 54.6716 188.664 54.892C188.102 55.108 187.47 55.2159 186.768 55.2159ZM193.482 55V44.6364H195.074V49.1435H196.127L199.851 44.6364H201.902L197.719 49.6293L201.956 55H199.905L196.505 50.6278H195.074V55H193.482ZM207.47 55.2159C206.535 55.2159 205.714 54.9933 205.008 54.5479C204.306 54.1026 203.757 53.4796 203.361 52.679C202.97 51.8783 202.774 50.9427 202.774 49.8722C202.774 48.7926 202.97 47.8503 203.361 47.0451C203.757 46.2399 204.306 45.6147 205.008 45.1694C205.714 44.7241 206.535 44.5014 207.47 44.5014C208.406 44.5014 209.225 44.7241 209.926 45.1694C210.633 45.6147 211.181 46.2399 211.573 47.0451C211.968 47.8503 212.166 48.7926 212.166 49.8722C212.166 50.9427 211.968 51.8783 211.573 52.679C211.181 53.4796 210.633 54.1026 209.926 54.5479C209.225 54.9933 208.406 55.2159 207.47 55.2159ZM207.47 53.7855C208.181 53.7855 208.766 53.6033 209.225 53.239C209.683 52.8746 210.023 52.3956 210.243 51.8018C210.464 51.2081 210.574 50.5649 210.574 49.8722C210.574 49.1795 210.464 48.534 210.243 47.9357C210.023 47.3375 209.683 46.8539 209.225 46.4851C208.766 46.1162 208.181 45.9318 207.47 45.9318C206.76 45.9318 206.175 46.1162 205.716 46.4851C205.257 46.8539 204.918 47.3375 204.697 47.9357C204.477 48.534 204.367 49.1795 204.367 49.8722C204.367 50.5649 204.477 51.2081 204.697 51.8018C204.918 52.3956 205.257 52.8746 205.716 53.239C206.175 53.6033 206.76 53.7855 207.47 53.7855ZM220.265 52.8409L223.881 44.6364H225.392L220.912 55H219.617L215.218 44.6364H216.702L220.265 52.8409ZM216.189 44.6364V55H214.597V44.6364H216.189ZM224.34 55V44.6364H225.932V55H224.34Z" fill="white" fill-opacity="0.84"/>
</svg>
